<?xml version="1.0" encoding="UTF-8"?><svg id="Layer_1" xmlns="http://www.w3.org/2000/svg" viewBox="0 0 512 512"><defs><style>.cls-1{fill:#df231d;}.cls-1,.cls-2{fill-rule:evenodd;}.cls-2,.cls-3{fill:#231f20;}.cls-4{fill:#eca694;}</style></defs><path class="cls-3" d="M468.78,167.27c8.2,0,14.72,6.65,14.72,14.98s-6.51,15.03-14.78,15.03-14.84-6.57-14.84-15.03,6.66-14.98,14.84-14.98h.06ZM468.72,169.61c-6.58,0-11.98,5.65-11.98,12.64s5.4,12.7,12.04,12.7c6.64.06,11.98-5.57,11.98-12.65s-5.34-12.7-11.98-12.7h-.06ZM465.93,190.96h-2.66v-16.71c1.39-.2,2.74-.4,4.71-.4,2.52,0,4.19.52,5.19,1.27,1,.71,1.54,1.85,1.54,3.46,0,2.18-1.48,3.52-3.27,4.03v.17c1.46.24,2.46,1.56,2.79,4.03.41,2.6.79,3.61,1.07,4.14h-2.78c-.41-.53-.81-2.07-1.15-4.26-.38-2.13-1.46-2.93-3.6-2.93h-1.85v7.18ZM465.93,181.72h1.93c2.18,0,4.06-.83,4.06-2.88,0-1.45-1.08-2.94-4.06-2.94-.87,0-1.45.08-1.93.15v5.67Z"/><rect class="cls-3" x="170.42" y="357.73" width="5.14" height="35.28"/><path class="cls-2" d="M208.74,369.17c-.45-1.9-1.28-6.17-5.6-6.17-2.56,0-6.51,2.38-6.51,12.36,0,6.25,1.76,11.9,6.51,11.9,2.59,0,4.73-1.87,5.6-6.19h5.1c-.84,7.65-4.72,12.89-11.14,12.89s-11.66-6.7-11.19-18.61c0-12.36,5.1-18.56,11.61-18.56,7.32,0,10.31,7.13,10.74,12.37h-5.14Z"/><polygon class="cls-2" points="248.3 363.98 234.98 363.93 234.95 371.6 247.44 371.6 247.44 377.75 234.95 377.75 234.95 386.84 249.17 386.84 249.17 393.01 229.79 393.01 229.81 357.76 248.3 357.79 248.3 363.98"/><path class="cls-2" d="M281.42,369.71c-.42-2.41-1.3-6.2-5.59-6.2-2.56,0-6.42,2.38-6.42,11.9,0,6.67,1.68,12.39,6.42,12.39,2.59,0,4.74-2.38,5.57-6.66h5.14c-.81,7.64-4.68,12.87-11.16,12.87s-11.58-6.21-11.58-18.6c.4-11.9,5.15-18.56,12.03-18.56,7.31,0,10.36,7.62,10.75,12.86h-5.15Z"/><path class="cls-2" d="M302.52,357.79l12.89.51c6.49,0,7.78,6.67,7.78,9.54,0,4.25-1.32,7.57-3.92,8.55,2.15,1.42,3.45,2.38,3.45,9.06,0,4.77,0,6.22.84,6.69v.93h-5.57c-.42-1.4-.88-3.34-.88-7.14,0-4.8,0-6.68-3.86-6.71h-5.57l-.04,13.85h-5.15l.03-35.29ZM313.72,373.53c3,.02,4.28-1.43,4.28-4.76,0-1.91-.42-4.77-3.89-4.77h-6.42v9.53h6.04Z"/><polygon class="cls-2" points="358.43 364.53 345.1 364.53 345.1 371.68 357.56 371.68 357.14 377.82 345.1 377.82 345.1 386.88 358.88 386.88 358.88 393.08 339.9 393.08 339.96 358.3 358.43 358.3 358.43 364.53"/><path class="cls-2" d="M378.67,393.56l-5.61-.48,9.06-34.78h6.44l8.56,35.33h-5.57l-1.68-7.64-9.48-.06-1.72,7.62ZM382.08,380.26h6.44l-3.4-14.3-3.04,14.3Z"/><polygon class="cls-2" points="436.73 393.63 432.01 393.63 432.01 364.07 427.25 393.63 421.67 393.63 417.39 364.07 417.35 393.63 412.21 393.63 412.23 358.3 419.95 358.35 424.7 385.99 429.41 358.35 436.73 358.35 436.73 393.63"/><path class="cls-2" d="M457.38,382.64c0,1.95.85,5.75,5.59,5.75,2.57,0,5.17-.95,5.17-4.31,0-2.84-1.73-3.78-4.31-4.74l-3.01-.48c-3.86-1.42-8.15-2.88-8.15-10.51,0-3.76,1.71-10.94,9.86-10.94s9.93,7.17,9.93,11.45h-5.21c0-1.4-.4-5.26-5.15-5.26-1.7,0-4.26.98-4.26,4.26,0,2.38,1.71,3.36,2.56,3.36l6.45,2.4c3.43.92,6.46,2.82,6.46,9.52,0,10.48-7.77,11.42-9.91,11.42-9.45,0-11.2-7.59-11.2-11.93h5.18Z"/><path class="cls-1" d="M139.67,267.23l-5.6,1.92-1.79,89.52c-.89,10-4.31,22.41-14.61,25.25-4.74,2.35-12.06,1.91-16.34-.94-7.32-5.27-10.75-13.34-10.33-22.42l.9-91.98c-6.5-1.38-13.35-1.87-20.2-2.35l-3.05,64.29c-.87,3.33-3.46,7.17-6.89,7.64-3.04.96-5.64-.93-8.2-1.88-1.71-2.42-2.57-5.26-2.97-8.14l2.59-62.88c-6.48-1.41-13.35-1.41-19.8-2.4-1.72-.49-3.9-2.38-4.72-4.28-.43-2.38,0-5.21,1.31-6.67,6.43-3.78,15.89-1.92,23.22-3.33h.39s1.8-60.96,3.48-89.55c1.32-15.72,9.53-29.55,21.58-36.66,12.44-5.68,30.52-8.08,41.73,1.9,22.77,22.91,12,62.45,14.12,93.9l-.39,24.27c5.14,1.95,12.43,5.74,12.87,13.37.45,5.23-3.42,9.01-7.29,11.42M93.68,164.79c-.43-4.78-1.32-10.01-5.59-12.89-3.02-.98-5.6-.45-8.16.96-2.63,2.86-3.92,6.64-4.35,10.43l-3.05,83.41c6.5-.96,13.37-.47,19.8-1.86.04-26.68.48-53.36,1.35-80.05"/><path class="cls-4" d="M60.13,239.97l-.91,8.58-.32,2.62-.29,3.68,1.52,1.28s1.16.06,2.06.36c.87.3,3.01.3,3.01.3l-1.53-4.28s-.29-1.01-1.19-1.63c-.9-.66-1.81-2.33-1.81-2.33v-4.61l-.55-3.97Z"/><path class="cls-4" d="M123.22,263.54s-3.33,5.35-3,13.24c0,0-.74,74.05-1.15,76.11-.35,2.07,2.62,17.78-5.24,21.05,0,0-1.48,3.78.79,2.93,0,0,8.59,0,7.07-33.1,0,0-1.08-64.09,3.07-76.1,0,0,1.04-4.96-1.55-4.13"/><path class="cls-4" d="M101.27,126.66s11.59-4.13,19.02,12.83c0,0,5.61,15.73,4.11,37.18,0,0-2.99,52.96-1.15,59.59,0,0-1.1,15.75,13.42,20.69,0,0-9.3,4.09-15.69-9.12,0,0-1.84-9.91-1.45-33.93,0,0,4.1-45.88,0-63.63,0,0-3.71-24.41-18.27-23.6"/><path class="cls-1" d="M351.16,334.95c-4.76,2.9-11.2,4.32-16.82,1.9-14.19-5.23-12.46-24.27-15.02-38.12-9.94,13.85-18.14,30.97-33.59,38.62-5.61,2.32-12.97.91-17.64-2.9-4.32-3.8-6.47-9.07-8.18-14.78l-6.86-76.71c-.4-9.51-.4-19.03,6.44-24.75,3.92-3.82,8.21-5.76,13.34-5.26,8.2.96,14.68,9.04,16.36,17.17,2.99,22.38,4.27,45.24,7.71,67.17,3.87-.94,5.61-5.24,7.32-8.12,9.5-13.81,13.36-31.46,10.78-50.45,0-9.07,3.04-18.58,10.36-22.41,5.62-3.79,14.19-3.35,19.35,0,13.76,11.47,8.6,32.87,12.02,49.56,1.29,17.16,5.59,33.86,4.28,51.95-1.27,6.68-5.12,12.36-9.84,17.12"/><path class="cls-4" d="M334.54,224.17s14.14-3.95,16.2,21.33c2.02,25.3,5.04,59.56,5.04,59.56,0,0,3.05,15.7-3.54,21.33,0,0,4.05-7.32.49-20.21l-5.03-62.37s0-16.27-13.17-19.64"/><path class="cls-4" d="M274.12,222.46s8.64-1.12,7.62,29.78l3.54,30.88s.5,19.64,8.64,20.2c8.09.61-.54-1.66-.54-1.66l1.04-2.21-4.59-8.98-3.57-14.64-1.51-19.7-.99-16.83s-1.52-19.11-9.65-16.84"/><path class="cls-1" d="M461.3,335.48c-5.61,3.84-13.37,4.29-19.39,1.47-18.49-11-14.15-36.25-20.18-54.4l-.87-1.85c-5.61,14.28-10.33,29.03-15.5,43.83-2.59,7.57-9.92,13.31-17.66,13.78-6.01,0-11.6-1.92-15.06-7.64-2.1-5.22-3.42-10.94-4.28-16.68l-7.7-79.52c.4-8.12,4.71-15.74,11.62-19.57,4.71-.96,10.74-2.85,15.46,0,6.88,2.9,10.36,11.5,11.18,19.08,1.72,11.42,3.46,22.91,5.61,33.8,6.41-13.26,9.06-29.02,16.33-41.86,4.33-7.17,9.92-12.39,17.25-13.36,5.56.49,11.17.49,14.57,5.73l3.45,6.7,13.78,82.89c2.58,10.47-.46,21.88-8.62,27.6"/><path class="cls-4" d="M435,225.49s13.8-5.31,17.86,19.65c4.07,24.99,9.81,58.82,9.81,58.82,0,0,4.29,15.36-1.77,21.68,0,0,3.42-7.7-1.15-20.25l-10.04-61.6s-1.28-16.21-14.7-18.3"/><path class="cls-4" d="M382.76,225.34s8.59-5.31,11.41,11.26c.05.55.16,1.09.27,1.67,2.54,18.49-.56,26.34,7.55,31.99,0,0,2.06,4.49-3.04,3.93,0,0-6.06-6.76-5.54-18.55,0,0,1.03-22.47-5.6-25.85-6.56-3.36-.96-1.12-.96-1.12,0,0,0-3.93-4.09-3.34"/><path class="cls-4" d="M412.59,280.79s2.6-1.52,1.47,1.18l-16.07,40.23s-2.13,3.2-3,.32"/><path class="cls-1" d="M212.72,255.37c-17.28,12.3-22.57,38.52-20.78,58.45-.38,9.15-3.85,18.69-11.31,22.23-5.78,3.62-12.25,2.77-17.27-.85-13.24-12.23-7.12-33.71-9.81-50.82-.52-17.45-4.12-34.58-2.01-52.9,1.59-6.73,5.68-12.3,10.63-16.95,4.85-2.69,9.3-3.87,14.81-1.16,14.29,6.12,11.47,25.93,13.41,38.53,1.75-4.01,5.17-6.87,7.76-10.29,4.6-6.13,9.2-12.42,14.55-17.92,5.17-5.32,11.56-10.06,19.27-9.43,8,.66,17.92,8.7,17.92,17.2s-7.91,12.17-14.73,14.59c-6.04,2.1-12.7,3.84-18.39,6.84-1.4.73-2.76,1.6-4.03,2.49"/><path class="cls-4" d="M185.66,249.7s-.36-24.27-8.67-27.38c-8.26-3.12-1.27-1.12-1.27-1.12,0,0-.28-4.23-5.21-3.3,0,0,10.12-6.35,14.73,11.24.1.59.27,1.13.41,1.75v18.81Z"/><path class="cls-4" d="M237.85,240.42l.98-.96c-11.79-1.63-26.39,4.37-34.92,12.07-7.13,6.45-11.58,14.21-15.74,22.74-3.3,6.81-5.4,13.01-5.38,20.82,0,2.89.37,8.74,3.1,10.08-.43-1.8-.82-6.77-.39-8.91,2.56-12.59,4.28-22.82,12.04-33.26,4.49-6.09,9.67-12.08,16.45-15.58,7.54-3.92,15.72-4.64,23.84-7"/></svg>